<svg height="512" viewBox="0 0 64 64" width="512" xmlns="http://www.w3.org/2000/svg" xmlns:xlink="http://www.w3.org/1999/xlink"><linearGradient id="New_Gradient_Swatch" gradientUnits="userSpaceOnUse" x1="45" x2="45" y1="64.032" y2="-.156"><stop offset="0" stop-color="#e93e3a"/><stop offset=".35" stop-color="#ed683c"/><stop offset=".7" stop-color="#f3903f"/><stop offset="1" stop-color="#fdc70c"/></linearGradient><linearGradient id="New_Gradient_Swatch-2" x1="57" x2="57" xlink:href="#New_Gradient_Swatch" y1="64.032" y2="-.156"/><linearGradient id="New_Gradient_Swatch-3" x1="53" x2="53" xlink:href="#New_Gradient_Swatch" y1="64.032" y2="-.156"/><linearGradient id="New_Gradient_Swatch-4" x1="49" x2="49" xlink:href="#New_Gradient_Swatch" y1="64.032" y2="-.156"/><linearGradient id="New_Gradient_Swatch-12" x1="34" x2="34" xlink:href="#New_Gradient_Swatch" y1="64.032" y2="-.156"/><linearGradient id="New_Gradient_Swatch-13" x1="30" x2="30" xlink:href="#New_Gradient_Swatch" y1="64.032" y2="-.156"/><linearGradient id="New_Gradient_Swatch-14" x1="22.475" x2="22.475" xlink:href="#New_Gradient_Swatch" y1="64.032" y2="-.156"/><linearGradient id="New_Gradient_Swatch-15" x1="22" x2="22" xlink:href="#New_Gradient_Swatch" y1="64.032" y2="-.156"/><linearGradient id="New_Gradient_Swatch-17" x1="5" x2="5" xlink:href="#New_Gradient_Swatch" y1="64.032" y2="-.156"/><linearGradient id="New_Gradient_Swatch-20" x1="39" x2="39" xlink:href="#New_Gradient_Swatch" y1="64.032" y2="-.156"/><linearGradient id="New_Gradient_Swatch-21" x1="43" x2="43" xlink:href="#New_Gradient_Swatch" y1="64.032" y2="-.156"/><linearGradient id="New_Gradient_Swatch-22" x1="47" x2="47" xlink:href="#New_Gradient_Swatch" y1="64.032" y2="-.156"/><linearGradient id="New_Gradient_Swatch-23" x1="51" x2="51" xlink:href="#New_Gradient_Swatch" y1="64.032" y2="-.156"/><g id="Server-Cloud-Network-Configuration-Setting"><path d="m45 18c-8.45 0-17 2.06-17 6v8c0 3.94 8.55 6 17 6 5.97 0 11.98-1.04 15-3.03v5.03c0 1.63-5.84 4-15 4a46.58 46.58 0 0 1 -6.85-.49l-.3 1.98a47.929 47.929 0 0 0 7.15.51c5.97 0 11.98-1.04 15-3.03v5.03c0 1.63-5.84 4-15 4a45.556 45.556 0 0 1 -7.82-.65l-.36 1.96a46.724 46.724 0 0 0 8.18.69c8.45 0 17-2.06 17-6v-24c0-3.94-8.55-6-17-6zm15 14c0 1.63-5.84 4-15 4s-15-2.37-15-4v-5.03c3.02 1.99 9.03 3.03 15 3.03s11.98-1.04 15-3.03zm-15-4c-9.16 0-15-2.37-15-4s5.84-4 15-4 15 2.37 15 4-5.84 4-15 4z" fill="url(#New_Gradient_Swatch)"/><path d="m56 30h2v2h-2z" fill="url(#New_Gradient_Swatch-2)"/><path d="m52 31h2v2h-2z" fill="url(#New_Gradient_Swatch-3)"/><path d="m48 32h2v2h-2z" fill="url(#New_Gradient_Swatch-4)"/><path d="m56 38h2v2h-2z" fill="url(#New_Gradient_Swatch-2)"/><path d="m52 39h2v2h-2z" fill="url(#New_Gradient_Swatch-3)"/><path d="m48 40h2v2h-2z" fill="url(#New_Gradient_Swatch-4)"/><path d="m56 46h2v2h-2z" fill="url(#New_Gradient_Swatch-2)"/><path d="m52 47h2v2h-2z" fill="url(#New_Gradient_Swatch-3)"/><path d="m48 48h2v2h-2z" fill="url(#New_Gradient_Swatch-4)"/><path d="m39 23h12v2h-12z" fill="url(#New_Gradient_Swatch)"/><path d="m33 13h2v2h-2z" fill="url(#New_Gradient_Swatch-12)"/><path d="m29 13h2v2h-2z" fill="url(#New_Gradient_Swatch-13)"/><path d="m11 31h15v-2h-15a7 7 0 1 1 .05-14 1 1 0 0 0 .995-1.1c-.029-.3-.045-.6-.045-.9a8.994 8.994 0 0 1 16.565-4.862 1 1 0 0 0 1.274.36 4.941 4.941 0 0 1 2.161-.498 5.006 5.006 0 0 1 5 5 4.949 4.949 0 0 1 -.083.879 1 1 0 0 0 .873 1.169 6.947 6.947 0 0 1 3.837 1.7l1.322-1.5a8.939 8.939 0 0 0 -3.949-2.022c0-.076 0-.151 0-.226a7.008 7.008 0 0 0 -7-7 6.9 6.9 0 0 0 -2.232.369 10.994 10.994 0 0 0 -19.768 6.631v.055a9 9 0 0 0 1 17.945z" fill="url(#New_Gradient_Swatch-14)"/><path d="m35.142 45.01-2.682-.383a10.96 10.96 0 0 0 -.678-1.639l1.624-2.166a1 1 0 0 0 -.093-1.307l-2.828-2.828a1 1 0 0 0 -1.307-.093l-2.166 1.624a10.96 10.96 0 0 0 -1.639-.678l-.383-2.682a1 1 0 0 0 -.99-.858h-4a1 1 0 0 0 -.99.858l-.383 2.682a10.96 10.96 0 0 0 -1.639.678l-2.166-1.624a1 1 0 0 0 -1.307.093l-2.828 2.828a1 1 0 0 0 -.093 1.307l1.624 2.166a10.96 10.96 0 0 0 -.678 1.639l-2.682.383a1 1 0 0 0 -.858.99v4a1 1 0 0 0 .858.99l2.682.383a10.96 10.96 0 0 0 .678 1.639l-1.624 2.166a1 1 0 0 0 .093 1.307l2.828 2.828a1 1 0 0 0 1.307.093l2.166-1.624a10.96 10.96 0 0 0 1.639.678l.383 2.682a1 1 0 0 0 .99.858h4a1 1 0 0 0 .99-.858l.383-2.682a10.96 10.96 0 0 0 1.639-.678l2.166 1.624a1 1 0 0 0 1.307-.093l2.828-2.828a1 1 0 0 0 .093-1.307l-1.624-2.166a10.96 10.96 0 0 0 .678-1.639l2.682-.383a1 1 0 0 0 .858-.99v-4a1 1 0 0 0 -.858-.99zm-1.142 4.123-2.463.352a1 1 0 0 0 -.828.743 8.892 8.892 0 0 1 -.975 2.356 1 1 0 0 0 .06 1.111l1.492 1.99-1.6 1.6-1.986-1.491a1 1 0 0 0 -1.111-.06 8.892 8.892 0 0 1 -2.356.975 1 1 0 0 0 -.743.828l-.357 2.463h-2.266l-.352-2.463a1 1 0 0 0 -.743-.828 8.892 8.892 0 0 1 -2.356-.975 1 1 0 0 0 -1.111.06l-1.99 1.492-1.6-1.6 1.492-1.99a1 1 0 0 0 .06-1.111 8.892 8.892 0 0 1 -.975-2.356 1 1 0 0 0 -.828-.743l-2.464-.353v-2.266l2.463-.352a1 1 0 0 0 .828-.743 8.892 8.892 0 0 1 .975-2.356 1 1 0 0 0 -.06-1.111l-1.492-1.99 1.6-1.6 1.99 1.492a1 1 0 0 0 1.111.06 8.892 8.892 0 0 1 2.356-.975 1 1 0 0 0 .743-.828l.353-2.464h2.266l.352 2.463a1 1 0 0 0 .743.828 8.892 8.892 0 0 1 2.356.975 1 1 0 0 0 1.111-.06l1.99-1.492 1.6 1.6-1.492 1.99a1 1 0 0 0 -.06 1.111 8.892 8.892 0 0 1 .975 2.356 1 1 0 0 0 .828.743l2.464.353z" fill="url(#New_Gradient_Swatch-15)"/><path d="m22 42a6 6 0 1 0 6 6 6.006 6.006 0 0 0 -6-6zm0 10a4 4 0 1 1 4-4 4 4 0 0 1 -4 4z" fill="url(#New_Gradient_Swatch-15)"/><g fill="url(#New_Gradient_Swatch-17)"><path d="m4 47h2v2h-2z"/><path d="m4 43h2v2h-2z"/><path d="m4 51h2v2h-2z"/></g><path d="m38 56h2v2h-2z" fill="url(#New_Gradient_Swatch-20)"/><path d="m42 56h2v2h-2z" fill="url(#New_Gradient_Swatch-21)"/><path d="m46 56h2v2h-2z" fill="url(#New_Gradient_Swatch-22)"/><path d="m50 56h2v2h-2z" fill="url(#New_Gradient_Swatch-23)"/></g></svg>